<svg xmlns="http://www.w3.org/2000/svg" version="1.1" xmlns:xlink="http://www.w3.org/1999/xlink" xmlns:svgjs="http://svgjs.dev/svgjs" width="1500" height="2200" preserveAspectRatio="none" viewBox="0 0 1500 2200"><g mask="url(&quot;#SvgjsMask1104&quot;)" fill="none"><rect width="1500" height="2200" x="0" y="0" fill="rgba(0, 69, 158, 1)"></rect><path d="M-425.28 1896.25 a442.66 442.66 0 1 0 885.32 0 a442.66 442.66 0 1 0 -885.32 0z" fill="rgba(0, 152, 255, 0.35)" class="triangle-float2"></path><path d="M1244.4051251594224 2139.9453433783124L990.8947599560806 1981.5344857714033 832.4839023491717 2235.0448509747453 1085.9942675525133 2393.455708581654z" fill="rgba(0, 152, 255, 0.35)" class="triangle-float2"></path><path d="M849.5435841255962 1492.8349548809979L922.8966200838984 1076.8292156369153 506.8908808398156 1003.476179678613 433.5378448815135 1419.4819189226957z" fill="rgba(0, 152, 255, 0.35)" class="triangle-float2"></path><path d="M1112.0478702743364 1198.255063417914L1354.26524188983 1124.2017813327836 1280.2119598046993 881.9844097172902 1037.994588189206 956.0376918024207z" fill="rgba(0, 152, 255, 0.35)" class="triangle-float1"></path><path d="M366.78 860.25 a432.81 432.81 0 1 0 865.62 0 a432.81 432.81 0 1 0 -865.62 0z" fill="rgba(0, 152, 255, 0.35)" class="triangle-float1"></path><path d="M721.9508782658477-143.68013246176383L546.5631046194615 200.53775463379316 890.7809917150184 375.9255282801794 1066.1687653614047 31.70764118462236z" fill="rgba(0, 152, 255, 0.35)" class="triangle-float3"></path><path d="M-254.42 1920.94 a466.87 466.87 0 1 0 933.74 0 a466.87 466.87 0 1 0 -933.74 0z" fill="rgba(0, 152, 255, 0.35)" class="triangle-float1"></path><path d="M254.863,659.522C347.353,665.464,437.237,614.428,481.262,532.871C523.426,454.761,504.708,360.289,456.686,285.637C412.739,217.319,336.047,178.137,254.863,180.922C178.3,183.549,112.897,231.748,75.681,298.709C39.582,363.66,40.754,440.14,73.805,506.694C111.455,582.509,170.388,654.095,254.863,659.522" fill="rgba(0, 152, 255, 0.35)" class="triangle-float2"></path><path d="M1193.77 79.91 a275.48 275.48 0 1 0 550.96 0 a275.48 275.48 0 1 0 -550.96 0z" fill="rgba(0, 152, 255, 0.35)" class="triangle-float3"></path><path d="M203.99351345334276 1283.7805175525627L-152.08092538966451 1515.0179618807542 79.15651893852706 1871.0924007237616 435.23095778153436 1639.85495639557z" fill="rgba(0, 152, 255, 0.35)" class="triangle-float3"></path><path d="M644.5224676393261 1978.8970293946443L769.0401076971881 1754.2612603565633 544.4043386591071 1629.7436202987014 419.88669860124514 1854.3793893367824z" fill="rgba(0, 152, 255, 0.35)" class="triangle-float3"></path><path d="M1149.965,887.971C1224.795,886.616,1300.786,860.634,1338.051,795.729C1375.186,731.049,1357.943,653.148,1322.445,587.556C1284.738,517.883,1228.996,453.684,1149.965,448.193C1062.065,442.086,973.626,483.59,930.294,560.31C887.56,635.972,901.315,730.583,949.704,802.759C993.002,867.342,1072.224,889.378,1149.965,887.971" fill="rgba(0, 152, 255, 0.35)" class="triangle-float2"></path><path d="M549.721980987003 6.444781845335584L379.13480139181934 408.32299247385043 781.0130120203343 578.910172069034 951.6001916155178 177.03196144051924z" fill="rgba(0, 152, 255, 0.35)" class="triangle-float3"></path><path d="M1428.1786615406386 1184.4413294618014L1039.635017045265 1391.0336498521162 1246.2273374355798 1779.57729434749 1634.7709819309534 1572.984973957175z" fill="rgba(0, 152, 255, 0.35)" class="triangle-float3"></path><path d="M1406.586,818.308C1470.612,817.799,1516.893,763.863,1547.571,707.663C1576.707,654.289,1588.195,591.586,1559.663,537.886C1529.412,480.95,1471.054,443.192,1406.586,442.311C1340.624,441.41,1277.499,475.591,1246.086,533.6C1215.97,589.213,1230.603,654.845,1261.661,709.938C1293.41,766.257,1341.936,818.822,1406.586,818.308" fill="rgba(0, 152, 255, 0.35)" class="triangle-float1"></path></g><defs><mask id="SvgjsMask1104"><rect width="1500" height="2200" fill="#ffffff"></rect></mask><style>
                @keyframes float1 {
                    0%{transform: translate(0, 0)}
                    50%{transform: translate(-10px, 0)}
                    100%{transform: translate(0, 0)}
                }

                .triangle-float1 {
                    animation: float1 5s infinite;
                }

                @keyframes float2 {
                    0%{transform: translate(0, 0)}
                    50%{transform: translate(-5px, -5px)}
                    100%{transform: translate(0, 0)}
                }

                .triangle-float2 {
                    animation: float2 4s infinite;
                }

                @keyframes float3 {
                    0%{transform: translate(0, 0)}
                    50%{transform: translate(0, -10px)}
                    100%{transform: translate(0, 0)}
                }

                .triangle-float3 {
                    animation: float3 6s infinite;
                }
            </style></defs></svg>